<svg version="1.1" id="Layer_1" xmlns="http://www.w3.org/2000/svg" xmlns:xlink="http://www.w3.org/1999/xlink" x="0px" y="0px"
	 width="100%" viewBox="0 0 724 558" enable-background="new 0 0 724 558" xml:space="preserve">
<path fill="#FFFFFF" opacity="1.000000" stroke="none" 
	d="
M1.000000,212.000000 
	C1.000000,141.347000 1.000000,71.194008 1.000000,1.020508 
	C242.272644,1.020508 483.545288,1.020508 724.908936,1.020508 
	C724.908936,186.903015 724.908936,372.806091 724.908936,558.854614 
	C483.666748,558.854614 242.333374,558.854614 1.000000,558.854614 
	C1.000000,443.454681 1.000000,327.977325 1.000000,212.000000 
M370.597748,52.118706 
	C365.143860,53.570511 359.549988,54.635536 354.263367,56.549404 
	C340.508270,61.529037 326.829376,66.732971 313.225983,72.115044 
	C282.815125,84.146843 252.801025,96.970734 226.214081,116.535240 
	C217.961990,122.607704 208.351227,126.577469 200.847626,133.948395 
	C193.389023,141.275146 184.276047,147.011292 177.322266,154.735657 
	C167.789810,165.324524 161.694519,178.294205 157.439697,191.889603 
	C155.766571,197.235733 155.511581,203.025650 154.538437,209.062195 
	C159.731308,209.062195 163.572998,208.824020 167.370636,209.130920 
	C170.980316,209.422653 172.678665,207.932083 174.052597,204.699814 
	C176.448395,199.063492 178.906296,193.342880 182.217041,188.226303 
	C193.557053,170.700867 209.606232,157.978317 226.490784,146.244568 
	C264.550110,119.795631 307.154114,102.629707 350.061890,86.155846 
	C372.800171,77.425781 396.445038,72.189835 420.571167,69.055717 
	C436.525787,66.983131 452.439392,63.681156 468.443787,63.162285 
	C484.468140,62.642769 500.641083,64.354362 516.641968,66.079720 
	C535.165588,68.077087 553.370667,71.997833 570.753967,79.035027 
	C575.475403,80.946396 577.951660,85.342476 576.639709,90.227432 
	C575.875061,93.074471 574.865479,96.171478 573.017883,98.353043 
	C567.340820,105.056465 561.880493,112.200226 555.132324,117.694740 
	C527.399170,140.275726 497.267761,159.212418 464.502991,173.640472 
	C446.485565,181.574493 428.676483,190.605453 407.751251,188.104797 
	C400.573669,187.247040 398.315796,190.693985 398.998260,197.951935 
	C399.733551,205.771667 403.298706,209.062119 411.035400,209.062073 
	C420.865540,209.062012 430.747101,208.428406 440.512939,209.220886 
	C453.040802,210.237518 463.994843,206.751251 474.715607,200.767883 
	C505.390594,183.647827 535.595825,165.808334 564.534363,145.831833 
	C573.949890,139.332199 582.328674,131.848282 589.295837,122.978500 
	C595.954163,114.502037 601.122375,105.118813 597.644287,93.525528 
	C593.560730,79.914352 585.957886,69.113724 573.470215,61.799561 
	C556.083008,51.615738 537.880676,44.552711 517.692810,41.412548 
	C496.040100,38.044518 474.576538,36.593410 452.711823,37.748161 
	C424.979340,39.212811 398.080322,44.762840 370.597748,52.118706 
M409.863403,435.577728 
	C408.960663,431.431519 408.477051,427.137665 407.078064,423.166260 
	C402.534332,410.267578 395.246368,399.007172 385.575348,389.341705 
	C384.498840,388.265808 382.780029,387.262390 381.332245,387.223389 
	C373.615509,387.015564 365.890228,387.125549 357.634857,387.125549 
	C358.439087,387.988892 358.707214,388.409424 359.086578,388.664734 
	C371.290131,396.877625 382.477112,406.205383 392.014587,417.506378 
	C395.745514,421.927155 396.580322,426.568970 395.091736,431.852020 
	C393.800903,436.433289 389.672821,434.608185 386.702301,435.327911 
	C385.262939,435.676697 383.750977,435.879028 382.270966,435.884094 
	C353.832336,435.981415 326.009827,440.179199 298.694641,448.064789 
	C268.691620,456.726379 239.346664,466.838348 213.516769,485.079834 
	C212.714020,485.646759 211.257645,486.637787 210.989990,486.406799 
	C207.828110,483.677979 206.502792,486.817932 205.398071,488.433838 
	C201.932465,493.503265 198.358154,498.601135 195.729843,504.118561 
	C190.463516,515.173767 193.411285,526.438538 203.301285,533.800293 
	C213.021301,541.035461 224.593857,543.184326 236.041290,541.559448 
	C264.059845,537.582397 292.384094,534.502625 318.029541,520.683289 
	C326.187256,516.287476 335.326965,513.753845 343.725525,509.755157 
	C354.682098,504.538513 365.958099,499.623871 375.985626,492.917938 
	C388.581421,484.494476 397.673676,472.352234 404.804840,458.968201 
	C406.444489,455.890869 408.217255,454.136597 411.737152,454.930603 
	C420.103760,456.817963 428.470093,458.709625 436.811554,460.704041 
	C440.794159,461.656311 443.616486,463.894592 444.798004,468.104065 
	C445.113373,469.227570 446.785065,470.841187 447.639526,470.730316 
	C448.804993,470.579132 450.374420,469.159180 450.709839,467.981140 
	C451.265900,466.028168 451.674408,463.532166 450.921722,461.794891 
	C447.773071,454.527039 443.770447,447.579071 435.934143,444.562195 
	C427.601715,441.354370 418.987854,438.877625 409.863403,435.577728 
M94.185127,296.756134 
	C97.269753,292.195557 100.354378,287.634949 103.439003,283.074371 
	C103.789070,283.217682 104.139130,283.361023 104.489197,283.504333 
	C104.489197,298.583313 104.489197,313.662292 104.489197,328.843994 
	C107.245491,328.843994 109.544800,328.843994 111.964035,328.843994 
	C111.964035,308.100983 111.964035,287.530853 111.964035,267.132080 
	C107.000954,265.534363 104.166512,267.336884 101.590538,271.500397 
	C94.958588,282.219574 87.814407,292.621857 80.633980,303.516266 
	C73.330620,292.512695 66.124504,282.126831 59.471771,271.397797 
	C56.851696,267.172363 53.956985,265.642822 49.174999,267.153656 
	C49.174999,287.635925 49.174999,308.172028 49.174999,328.805786 
	C51.731441,328.805786 53.996964,328.805786 56.945114,328.805786 
	C56.945114,313.502350 56.945114,298.393372 56.945114,283.284393 
	C63.647896,291.845978 69.393730,300.566071 75.189537,309.252838 
	C78.268158,313.867096 82.759300,313.933685 85.812874,309.431488 
	C88.520241,305.439728 91.158272,301.400970 94.185127,296.756134 
M292.078125,308.499817 
	C292.078125,294.710663 292.078125,280.921478 292.078125,267.089722 
	C289.299774,267.089722 286.937714,267.089722 284.094849,267.089722 
	C284.094849,282.856049 284.094849,298.200989 284.094849,314.883484 
	C273.245392,299.534119 263.022919,285.431244 253.251312,271.022522 
	C250.416336,266.842194 247.379181,265.785248 242.584427,267.231750 
	C242.584427,286.407867 242.580460,305.531677 242.593109,324.655518 
	C242.593979,325.968170 242.719116,327.280762 242.789841,328.659332 
	C245.352676,328.659332 247.716827,328.659332 250.575256,328.659332 
	C250.575256,312.960968 250.575256,297.610748 250.575256,280.795197 
	C252.393448,283.258575 253.360245,284.521393 254.277893,285.819000 
	C263.406494,298.727356 272.716400,311.514038 281.539337,324.628265 
	C284.343628,328.796478 287.343658,329.908966 292.078247,328.474609 
	C292.078247,322.111908 292.078247,315.805756 292.078125,308.499817 
M693.121277,270.322693 
	C684.215759,264.299225 674.699524,264.184570 665.030945,267.857330 
	C658.958923,270.163879 655.444702,274.764374 654.944153,281.443298 
	C654.439209,288.180939 657.309265,293.187714 663.167053,296.131256 
	C667.281433,298.198700 671.795471,299.479462 676.151123,301.055847 
	C680.043579,302.464630 684.078674,303.542267 687.837463,305.238647 
	C691.259399,306.783020 693.856445,309.952301 692.636658,313.596191 
	C691.660583,316.512207 689.129517,319.857086 686.418335,321.075989 
	C675.543884,325.965210 665.245239,321.170258 661.490479,310.258453 
	C659.033081,310.258453 656.635803,310.258453 652.503418,310.258453 
	C655.300781,315.360352 656.849365,320.100281 659.927795,323.422699 
	C667.685364,331.795197 686.132935,332.454803 695.046936,325.326080 
	C703.343750,318.690948 703.090881,305.970123 694.205505,300.173615 
	C690.656189,297.858154 686.440552,296.495880 682.419983,294.988678 
	C677.771057,293.245941 672.907715,292.055084 668.316589,290.184967 
	C664.667358,288.698486 662.428040,285.834015 663.014771,281.538574 
	C663.583313,277.375763 666.380859,275.172516 670.102661,274.036774 
	C681.012634,270.707397 688.355896,274.256653 692.801453,284.759460 
	C695.151123,284.759460 697.424744,284.759460 699.801880,284.759460 
	C699.665039,279.032776 697.736389,274.442444 693.121277,270.322693 
M560.893799,299.500000 
	C560.893799,309.246155 560.893799,318.992279 560.893799,328.607483 
	C574.239990,328.607483 586.940796,328.607483 599.606873,328.607483 
	C599.606873,326.227905 599.606873,324.254669 599.606873,321.739899 
	C589.382568,321.739899 579.320496,321.739899 569.028809,321.739899 
	C569.028809,314.617249 569.028809,308.035797 569.028809,300.997406 
	C578.102112,300.997406 587.006897,300.997406 596.132446,300.997406 
	C596.132446,298.345062 596.132446,296.153900 596.132446,293.433655 
	C586.886841,293.433655 578.007385,293.433655 569.133667,293.433655 
	C569.133667,286.679047 569.133667,280.464752 569.133667,273.734009 
	C579.199097,273.734009 588.923645,273.734009 598.436646,273.734009 
	C598.436646,271.133484 598.436646,269.066223 598.436646,266.888794 
	C585.801392,266.888794 573.531799,266.888794 560.893860,266.888794 
	C560.893860,277.569824 560.893860,288.034912 560.893799,299.500000 
M360.524536,267.378540 
	C358.141052,267.084991 355.757538,266.791412 353.165070,266.472107 
	C353.165070,281.072845 352.470367,295.077179 353.369568,308.978394 
	C354.192566,321.701721 363.220490,329.490173 375.306061,329.977692 
	C388.917297,330.526703 398.693512,324.044189 400.011230,310.701263 
	C401.436401,296.269989 400.333923,281.589050 400.333923,267.049561 
	C398.078552,267.049561 395.697144,267.049561 393.121674,267.049561 
	C393.121674,278.597290 393.179016,289.754761 393.084991,300.910980 
	C393.058502,304.053467 392.943604,307.272858 392.253082,310.317200 
	C390.385590,318.550873 385.382599,322.268585 376.844238,322.238678 
	C368.438477,322.209229 363.282776,318.302612 361.506165,310.142670 
	C360.841095,307.087891 360.795044,303.861786 360.768188,300.711212 
	C360.675934,289.881134 360.717041,279.049896 360.524536,267.378540 
M484.510986,322.340881 
	C484.510986,306.415070 484.510986,290.489258 484.510986,274.008972 
	C491.745361,274.008972 498.466705,274.008972 505.303528,274.008972 
	C505.303528,271.356384 505.303528,269.269531 505.303528,266.958618 
	C488.676392,266.958618 472.298492,266.958618 455.893585,266.958618 
	C455.893585,269.453186 455.893585,271.662323 455.893585,274.195068 
	C462.895416,274.195068 469.515503,274.195068 476.626434,274.195068 
	C476.626434,292.574493 476.626434,310.629333 476.626434,328.839294 
	C479.421844,328.839294 481.717987,328.839294 484.510834,328.839294 
	C484.510834,326.884216 484.510834,325.086670 484.510986,322.340881 
M181.353088,304.500061 
	C181.353088,292.082123 181.353088,279.664215 181.353088,266.998779 
	C178.612320,266.998779 176.390396,266.998779 174.007141,266.998779 
	C174.007141,287.744263 174.007141,308.222961 174.007141,328.690613 
	C176.596420,328.690613 178.838272,328.690613 181.353226,328.690613 
	C181.353226,320.756927 181.353226,313.128510 181.353088,304.500061 
z"/>
<path fill="#97B3D1" opacity="1.000000" stroke="none" 
	d="
M371.007996,52.054325 
	C398.080322,44.762840 424.979340,39.212811 452.711823,37.748161 
	C474.576538,36.593410 496.040100,38.044518 517.692810,41.412548 
	C537.880676,44.552711 556.083008,51.615738 573.470215,61.799561 
	C585.957886,69.113724 593.560730,79.914352 597.644287,93.525528 
	C601.122375,105.118813 595.954163,114.502037 589.295837,122.978500 
	C582.328674,131.848282 573.949890,139.332199 564.534363,145.831833 
	C535.595825,165.808334 505.390594,183.647827 474.715607,200.767883 
	C463.994843,206.751251 453.040802,210.237518 440.512939,209.220886 
	C430.747101,208.428406 420.865540,209.062012 411.035400,209.062073 
	C403.298706,209.062119 399.733551,205.771667 398.998260,197.951935 
	C398.315796,190.693985 400.573669,187.247040 407.751251,188.104797 
	C428.676483,190.605453 446.485565,181.574493 464.502991,173.640472 
	C497.267761,159.212418 527.399170,140.275726 555.132324,117.694740 
	C561.880493,112.200226 567.340820,105.056465 573.017883,98.353043 
	C574.865479,96.171478 575.875061,93.074471 576.639709,90.227432 
	C577.951660,85.342476 575.475403,80.946396 570.753967,79.035027 
	C553.370667,71.997833 535.165588,68.077087 516.641968,66.079720 
	C500.641083,64.354362 484.468140,62.642769 468.443787,63.162285 
	C452.439392,63.681156 436.525787,66.983131 420.571167,69.055717 
	C396.445038,72.189835 372.800171,77.425781 350.061890,86.155846 
	C307.154114,102.629707 264.550110,119.795631 226.490784,146.244568 
	C209.606232,157.978317 193.557053,170.700867 182.217041,188.226303 
	C178.906296,193.342880 176.448395,199.063492 174.052597,204.699814 
	C172.678665,207.932083 170.980316,209.422653 167.370636,209.130920 
	C163.572998,208.824020 159.731308,209.062195 154.538437,209.062195 
	C155.511581,203.025650 155.766571,197.235733 157.439697,191.889603 
	C161.694519,178.294205 167.789810,165.324524 177.322266,154.735657 
	C184.276047,147.011292 193.389023,141.275146 200.847626,133.948395 
	C208.351227,126.577469 217.961990,122.607704 226.214081,116.535240 
	C252.801025,96.970734 282.815125,84.146843 313.225983,72.115044 
	C326.829376,66.732971 340.508270,61.529037 354.263367,56.549404 
	C359.549988,54.635536 365.143860,53.570511 371.007996,52.054325 
M321.168518,91.904312 
	C315.853699,93.804924 310.538849,95.705528 305.224030,97.606133 
	C305.533295,98.335564 305.842560,99.064995 306.151825,99.794426 
	C311.447784,97.209892 316.743744,94.625359 322.542664,92.019775 
	C322.826324,91.874542 323.109955,91.729301 323.393616,91.584061 
	C322.916870,91.706993 322.440125,91.829926 321.168518,91.904312 
M183.214798,166.377701 
	C187.535156,161.774582 191.432373,156.662704 196.249222,152.656555 
	C216.926804,135.459076 239.502838,120.939705 263.492126,108.956642 
	C302.633667,89.404755 342.673218,71.693901 385.508362,61.830872 
	C409.063873,56.407078 433.101868,53.079670 456.915924,48.771774 
	C457.549469,48.657173 458.109161,48.134583 458.703278,47.802254 
	C456.866791,46.908966 455.233795,46.906147 453.600830,46.909393 
	C432.402283,46.951530 411.561646,50.145859 390.946869,54.662678 
	C361.154999,61.190235 332.404297,71.069695 304.387238,83.058342 
	C270.041656,97.754990 236.815186,114.524750 206.892639,137.179276 
	C192.203094,148.300797 180.673141,162.090897 172.434601,179.392899 
	C169.969757,186.470367 167.504913,193.547836 165.040085,200.625305 
	C165.430435,200.741516 165.820770,200.857742 166.211121,200.973969 
	C172.869156,189.938095 179.527176,178.902222 186.389633,167.527481 
	C184.856842,167.295395 183.920380,167.153595 183.214798,166.377701 
M319.385956,86.913589 
	C294.418243,97.029770 269.659271,107.483566 246.308319,121.169853 
	C227.067398,132.447205 209.042267,145.260391 192.045013,159.603088 
	C190.159180,161.194382 188.730469,163.327377 187.089752,165.209152 
	C189.451141,164.915695 191.259552,163.902512 192.788345,162.568817 
	C213.909271,144.143356 237.565338,129.448822 262.073273,116.138542 
	C274.038025,109.640480 286.422363,103.792870 298.995392,98.560684 
	C332.084808,84.790718 364.844971,70.050987 400.965851,65.290230 
	C419.647217,62.828018 438.147797,58.995815 456.731842,55.792831 
	C460.155975,55.202690 463.588531,54.661736 467.017212,54.098072 
	C466.954742,53.697067 466.892273,53.296059 466.829773,52.895050 
	C463.044189,53.226223 459.263031,53.623386 455.472260,53.877781 
	C431.912811,55.458828 408.487549,58.555305 385.805786,64.929291 
	C363.624115,71.162735 341.980225,79.309814 319.385956,86.913589 
z"/>
<path fill="#98B3D1" opacity="1.000000" stroke="none" 
	d="
M410.180145,435.829681 
	C418.987854,438.877625 427.601715,441.354370 435.934143,444.562195 
	C443.770447,447.579071 447.773071,454.527039 450.921722,461.794891 
	C451.674408,463.532166 451.265900,466.028168 450.709839,467.981140 
	C450.374420,469.159180 448.804993,470.579132 447.639526,470.730316 
	C446.785065,470.841187 445.113373,469.227570 444.798004,468.104065 
	C443.616486,463.894592 440.794159,461.656311 436.811554,460.704041 
	C428.470093,458.709625 420.103760,456.817963 411.737152,454.930603 
	C408.217255,454.136597 406.444489,455.890869 404.804840,458.968201 
	C397.673676,472.352234 388.581421,484.494476 375.985626,492.917938 
	C365.958099,499.623871 354.682098,504.538513 343.725525,509.755157 
	C335.326965,513.753845 326.187256,516.287476 318.029541,520.683289 
	C292.384094,534.502625 264.059845,537.582397 236.041290,541.559448 
	C224.593857,543.184326 213.021301,541.035461 203.301285,533.800293 
	C193.411285,526.438538 190.463516,515.173767 195.729843,504.118561 
	C198.358154,498.601135 201.932465,493.503265 205.398071,488.433838 
	C206.502792,486.817932 207.828110,483.677979 210.989990,486.406799 
	C211.257645,486.637787 212.714020,485.646759 213.516769,485.079834 
	C239.346664,466.838348 268.691620,456.726379 298.694641,448.064789 
	C326.009827,440.179199 353.832336,435.981415 382.270966,435.884094 
	C383.750977,435.879028 385.262939,435.676697 386.702301,435.327911 
	C389.672821,434.608185 393.800903,436.433289 395.091736,431.852020 
	C396.580322,426.568970 395.745514,421.927155 392.014587,417.506378 
	C382.477112,406.205383 371.290131,396.877625 359.086578,388.664734 
	C358.707214,388.409424 358.439087,387.988892 357.634857,387.125549 
	C365.890228,387.125549 373.615509,387.015564 381.332245,387.223389 
	C382.780029,387.262390 384.498840,388.265808 385.575348,389.341705 
	C395.246368,399.007172 402.534332,410.267578 407.078064,423.166260 
	C408.477051,427.137665 408.960663,431.431519 410.180145,435.829681 
M288.743378,468.134369 
	C288.967743,467.849243 289.192139,467.564148 289.416534,467.279083 
	C288.866241,467.425995 288.315918,467.572906 287.201782,467.830627 
	C286.706818,468.115265 286.211853,468.399902 284.991821,468.758453 
	C270.097626,476.147827 254.922424,483.031372 240.403854,491.096924 
	C229.992142,496.880951 220.409424,504.175018 210.593216,510.991791 
	C209.299667,511.890076 208.814987,513.953125 207.955658,515.476746 
	C209.381866,516.095337 210.752487,516.982239 212.242889,517.290955 
	C227.148544,520.378967 242.160477,519.184937 256.850983,516.634949 
	C290.010986,510.879150 321.411346,499.602417 350.972015,483.490417 
	C363.862213,476.464600 375.655212,467.895447 385.006378,454.801086 
	C374.617401,455.883636 365.104126,456.613861 355.668518,457.909424 
	C331.990692,461.160645 308.425079,464.991943 285.855957,473.341583 
	C284.064880,474.004211 281.945496,473.779510 280.005707,474.003174 
	C280.005707,474.003174 280.038177,474.034607 280.280914,473.420685 
	C282.253448,472.021088 284.225983,470.621460 286.755768,469.095612 
	C287.230530,468.800079 287.705292,468.504517 288.743378,468.134369 
M307.277740,515.786621 
	C318.289642,511.211060 329.301544,506.635468 340.313446,502.059906 
	C340.173889,501.660645 340.034332,501.261383 339.894775,500.862122 
	C338.063751,501.372803 336.184692,501.754578 334.409851,502.416016 
	C325.689453,505.665924 317.045410,509.127350 308.276062,512.236755 
	C302.983551,514.113342 297.365204,517.126953 292.157379,516.663330 
	C285.720123,516.090149 281.305969,518.925659 276.093903,521.075562 
	C272.262146,522.656189 267.906036,523.133423 263.727539,523.640808 
	C261.332428,523.931641 258.743408,522.791870 256.382874,523.172241 
	C245.599747,524.909790 235.019150,528.162537 223.912811,527.329834 
	C218.552094,526.927917 213.197037,526.439453 207.846710,525.915771 
	C206.048843,525.739807 204.273499,525.333679 202.487869,525.032776 
	C202.327393,525.457886 202.166931,525.882935 202.006454,526.308044 
	C203.219925,527.285645 204.298111,528.551941 205.668732,529.194275 
	C214.817978,533.482056 224.651611,536.662292 234.560272,535.563599 
	C253.652420,533.446655 272.589783,529.905640 291.565308,526.796326 
	C294.301849,526.347961 296.894135,525.018860 299.553162,524.097351 
	C299.444580,523.765137 299.335968,523.432922 299.227386,523.100647 
	C288.477417,525.181824 277.727478,527.262939 266.977509,529.344116 
	C266.926361,529.067383 266.875214,528.790710 266.824066,528.514038 
	C280.060822,524.343811 293.297577,520.173645 307.277740,515.786621 
M295.317993,451.841614 
	C285.618744,454.803589 275.919525,457.765564 266.220276,460.727539 
	C266.356995,461.346588 266.493683,461.965637 266.630402,462.584686 
	C267.926300,462.473694 269.276581,462.560089 270.509369,462.220184 
	C279.581573,459.718628 288.572235,456.897766 297.701630,454.633209 
	C308.312622,452.001129 319.053497,449.896484 329.701294,447.405914 
	C331.636169,446.953308 333.394562,445.746033 335.234406,444.887146 
	C334.995544,444.308655 334.756653,443.730164 334.517792,443.151672 
	C321.709137,445.963196 308.900452,448.774719 295.317993,451.841614 
M285.563843,461.964844 
	C283.853882,462.644440 282.143921,463.324036 280.433960,464.003632 
	C280.571869,464.368561 280.709808,464.733490 280.847717,465.098419 
	C294.322906,461.664154 307.798065,458.229919 321.273254,454.795685 
	C321.117828,454.165375 320.962433,453.535065 320.807007,452.904755 
	C309.308807,455.855865 297.810608,458.806946 285.563843,461.964844 
M340.236023,449.790100 
	C337.452972,450.252808 334.669922,450.715485 331.886902,451.178192 
	C331.939697,451.495514 331.992462,451.812836 332.045258,452.130157 
	C348.061676,450.360931 364.078094,448.591736 380.094513,446.822510 
	C380.035370,446.260925 379.976257,445.699310 379.917114,445.137726 
	C366.969025,446.610291 354.020935,448.082825 340.236023,449.790100 
M358.037445,440.971619 
	C351.224670,441.508728 344.411896,442.045837 337.599091,442.582947 
	C337.671906,443.415253 337.744690,444.247528 337.817474,445.079834 
	C345.621490,444.458130 353.425476,443.836426 362.729095,443.095245 
	C360.412079,441.697021 359.474457,441.131165 358.037445,440.971619 
z"/>
<path fill="#4D5054" opacity="1.000000" stroke="none" 
	d="
M94.006027,297.069580 
	C91.158272,301.400970 88.520241,305.439728 85.812874,309.431488 
	C82.759300,313.933685 78.268158,313.867096 75.189537,309.252838 
	C69.393730,300.566071 63.647896,291.845978 56.945114,283.284393 
	C56.945114,298.393372 56.945114,313.502350 56.945114,328.805786 
	C53.996964,328.805786 51.731441,328.805786 49.174999,328.805786 
	C49.174999,308.172028 49.174999,287.635925 49.174999,267.153656 
	C53.956985,265.642822 56.851696,267.172363 59.471771,271.397797 
	C66.124504,282.126831 73.330620,292.512695 80.633980,303.516266 
	C87.814407,292.621857 94.958588,282.219574 101.590538,271.500397 
	C104.166512,267.336884 107.000954,265.534363 111.964035,267.132080 
	C111.964035,287.530853 111.964035,308.100983 111.964035,328.843994 
	C109.544800,328.843994 107.245491,328.843994 104.489197,328.843994 
	C104.489197,313.662292 104.489197,298.583313 104.489197,283.504333 
	C104.139130,283.361023 103.789070,283.217682 103.439003,283.074371 
	C100.354378,287.634949 97.269753,292.195557 94.006027,297.069580 
z"/>
<path fill="#4C4F53" opacity="1.000000" stroke="none" 
	d="
M292.078186,308.999695 
	C292.078247,315.805756 292.078247,322.111908 292.078247,328.474609 
	C287.343658,329.908966 284.343628,328.796478 281.539337,324.628265 
	C272.716400,311.514038 263.406494,298.727356 254.277893,285.819000 
	C253.360245,284.521393 252.393448,283.258575 250.575256,280.795197 
	C250.575256,297.610748 250.575256,312.960968 250.575256,328.659332 
	C247.716827,328.659332 245.352676,328.659332 242.789841,328.659332 
	C242.719116,327.280762 242.593979,325.968170 242.593109,324.655518 
	C242.580460,305.531677 242.584427,286.407867 242.584427,267.231750 
	C247.379181,265.785248 250.416336,266.842194 253.251312,271.022522 
	C263.022919,285.431244 273.245392,299.534119 284.094849,314.883484 
	C284.094849,298.200989 284.094849,282.856049 284.094849,267.089722 
	C286.937714,267.089722 289.299774,267.089722 292.078125,267.089722 
	C292.078125,280.921478 292.078125,294.710663 292.078186,308.999695 
z"/>
<path fill="#4C4F53" opacity="1.000000" stroke="none" 
	d="
M693.395996,270.558136 
	C697.736389,274.442444 699.665039,279.032776 699.801880,284.759460 
	C697.424744,284.759460 695.151123,284.759460 692.801453,284.759460 
	C688.355896,274.256653 681.012634,270.707397 670.102661,274.036774 
	C666.380859,275.172516 663.583313,277.375763 663.014771,281.538574 
	C662.428040,285.834015 664.667358,288.698486 668.316589,290.184967 
	C672.907715,292.055084 677.771057,293.245941 682.419983,294.988678 
	C686.440552,296.495880 690.656189,297.858154 694.205505,300.173615 
	C703.090881,305.970123 703.343750,318.690948 695.046936,325.326080 
	C686.132935,332.454803 667.685364,331.795197 659.927795,323.422699 
	C656.849365,320.100281 655.300781,315.360352 652.503418,310.258453 
	C656.635803,310.258453 659.033081,310.258453 661.490479,310.258453 
	C665.245239,321.170258 675.543884,325.965210 686.418335,321.075989 
	C689.129517,319.857086 691.660583,316.512207 692.636658,313.596191 
	C693.856445,309.952301 691.259399,306.783020 687.837463,305.238647 
	C684.078674,303.542267 680.043579,302.464630 676.151123,301.055847 
	C671.795471,299.479462 667.281433,298.198700 663.167053,296.131256 
	C657.309265,293.187714 654.439209,288.180939 654.944153,281.443298 
	C655.444702,274.764374 658.958923,270.163879 665.030945,267.857330 
	C674.699524,264.184570 684.215759,264.299225 693.395996,270.558136 
z"/>
<path fill="#4B4E52" opacity="1.000000" stroke="none" 
	d="
M560.893799,299.000000 
	C560.893860,288.034912 560.893860,277.569824 560.893860,266.888794 
	C573.531799,266.888794 585.801392,266.888794 598.436646,266.888794 
	C598.436646,269.066223 598.436646,271.133484 598.436646,273.734009 
	C588.923645,273.734009 579.199097,273.734009 569.133667,273.734009 
	C569.133667,280.464752 569.133667,286.679047 569.133667,293.433655 
	C578.007385,293.433655 586.886841,293.433655 596.132446,293.433655 
	C596.132446,296.153900 596.132446,298.345062 596.132446,300.997406 
	C587.006897,300.997406 578.102112,300.997406 569.028809,300.997406 
	C569.028809,308.035797 569.028809,314.617249 569.028809,321.739899 
	C579.320496,321.739899 589.382568,321.739899 599.606873,321.739899 
	C599.606873,324.254669 599.606873,326.227905 599.606873,328.607483 
	C586.940796,328.607483 574.239990,328.607483 560.893799,328.607483 
	C560.893799,318.992279 560.893799,309.246155 560.893799,299.000000 
z"/>
<path fill="#4D5054" opacity="1.000000" stroke="none" 
	d="
M360.615906,267.798828 
	C360.717041,279.049896 360.675934,289.881134 360.768188,300.711212 
	C360.795044,303.861786 360.841095,307.087891 361.506165,310.142670 
	C363.282776,318.302612 368.438477,322.209229 376.844238,322.238678 
	C385.382599,322.268585 390.385590,318.550873 392.253082,310.317200 
	C392.943604,307.272858 393.058502,304.053467 393.084991,300.910980 
	C393.179016,289.754761 393.121674,278.597290 393.121674,267.049561 
	C395.697144,267.049561 398.078552,267.049561 400.333923,267.049561 
	C400.333923,281.589050 401.436401,296.269989 400.011230,310.701263 
	C398.693512,324.044189 388.917297,330.526703 375.306061,329.977692 
	C363.220490,329.490173 354.192566,321.701721 353.369568,308.978394 
	C352.470367,295.077179 353.165070,281.072845 353.165070,266.472107 
	C355.757538,266.791412 358.141052,267.084991 360.615906,267.798828 
z"/>
<path fill="#484B4F" opacity="1.000000" stroke="none" 
	d="
M484.510925,322.815002 
	C484.510834,325.086670 484.510834,326.884216 484.510834,328.839294 
	C481.717987,328.839294 479.421844,328.839294 476.626434,328.839294 
	C476.626434,310.629333 476.626434,292.574493 476.626434,274.195068 
	C469.515503,274.195068 462.895416,274.195068 455.893585,274.195068 
	C455.893585,271.662323 455.893585,269.453186 455.893585,266.958618 
	C472.298492,266.958618 488.676392,266.958618 505.303528,266.958618 
	C505.303528,269.269531 505.303528,271.356384 505.303528,274.008972 
	C498.466705,274.008972 491.745361,274.008972 484.510986,274.008972 
	C484.510986,290.489258 484.510986,306.415070 484.510925,322.815002 
z"/>
<path fill="#474A4E" opacity="1.000000" stroke="none" 
	d="
M181.353149,305.000061 
	C181.353226,313.128510 181.353226,320.756927 181.353226,328.690613 
	C178.838272,328.690613 176.596420,328.690613 174.007141,328.690613 
	C174.007141,308.222961 174.007141,287.744263 174.007141,266.998779 
	C176.390396,266.998779 178.612320,266.998779 181.353088,266.998779 
	C181.353088,279.664215 181.353088,292.082123 181.353149,305.000061 
z"/>
<path fill="#FAFBFD" opacity="1.000000" stroke="none" 
	d="
M172.964569,178.935074 
	C180.673141,162.090897 192.203094,148.300797 206.892639,137.179276 
	C236.815186,114.524750 270.041656,97.754990 304.387238,83.058342 
	C332.404297,71.069695 361.154999,61.190235 390.946869,54.662678 
	C411.561646,50.145859 432.402283,46.951530 453.600830,46.909393 
	C455.233795,46.906147 456.866791,46.908966 458.703278,47.802254 
	C458.109161,48.134583 457.549469,48.657173 456.915924,48.771774 
	C433.101868,53.079670 409.063873,56.407078 385.508362,61.830872 
	C342.673218,71.693901 302.633667,89.404755 263.492126,108.956642 
	C239.502838,120.939705 216.926804,135.459076 196.249222,152.656555 
	C191.432373,156.662704 187.535156,161.774582 183.113281,166.688828 
	C183.011780,166.999954 183.008789,166.968613 182.701569,167.133987 
	C181.922989,168.540344 181.451630,169.781326 180.996628,171.016235 
	C181.012985,171.010147 181.018112,170.975616 180.723907,170.988403 
	C180.278381,171.339020 180.127060,171.676819 179.992523,172.012604 
	C180.009323,172.010590 180.012390,171.976898 179.727905,172.004150 
	C179.287872,172.358200 179.132324,172.684998 178.993637,173.009491 
	C179.010498,173.007172 179.007675,172.973221 178.676117,173.074173 
	C177.556015,174.788879 176.767456,176.402618 175.995193,178.012512 
	C176.011475,178.008652 176.009644,177.975204 175.684738,178.017151 
	C174.787598,178.718323 174.215347,179.377563 173.494064,179.877228 
	C173.165878,179.482254 173.039062,179.221390 172.964569,178.935074 
z"/>
<path fill="#F5F7FA" opacity="1.000000" stroke="none" 
	d="
M319.743103,86.765244 
	C341.980225,79.309814 363.624115,71.162735 385.805786,64.929291 
	C408.487549,58.555305 431.912811,55.458828 455.472260,53.877781 
	C459.263031,53.623386 463.044189,53.226223 466.829773,52.895050 
	C466.892273,53.296059 466.954742,53.697067 467.017212,54.098072 
	C463.588531,54.661736 460.155975,55.202690 456.731842,55.792831 
	C438.147797,58.995815 419.647217,62.828018 400.965851,65.290230 
	C364.844971,70.050987 332.084808,84.790718 298.995392,98.560684 
	C286.422363,103.792870 274.038025,109.640480 262.073273,116.138542 
	C237.565338,129.448822 213.909271,144.143356 192.788345,162.568817 
	C191.259552,163.902512 189.451141,164.915695 187.089752,165.209152 
	C188.730469,163.327377 190.159180,161.194382 192.045013,159.603088 
	C209.042267,145.260391 227.067398,132.447205 246.308319,121.169853 
	C269.659271,107.483566 294.418243,97.029770 319.743103,86.765244 
z"/>
<path fill="#F5F7FA" opacity="1.000000" stroke="none" 
	d="
M172.699585,179.163986 
	C173.039062,179.221390 173.165878,179.482254 173.877182,179.941620 
	C174.942780,179.435440 175.476212,178.705322 176.009644,177.975204 
	C176.009644,177.975204 176.011475,178.008652 176.321991,177.904999 
	C177.424225,176.191986 178.215958,174.582611 179.007675,172.973221 
	C179.007675,172.973221 179.010498,173.007172 179.279297,172.983582 
	C179.702850,172.632309 179.857620,172.304611 180.012390,171.976898 
	C180.012390,171.976898 180.009323,172.010590 180.263168,171.962952 
	C180.684036,171.602081 180.851074,171.288849 181.018112,170.975616 
	C181.018112,170.975616 181.012985,171.010147 181.322327,170.876892 
	C182.090714,169.485306 182.549744,168.226959 183.008789,166.968613 
	C183.008789,166.968613 183.011780,166.999954 182.997833,167.005875 
	C183.920380,167.153595 184.856842,167.295395 186.389633,167.527481 
	C179.527176,178.902222 172.869156,189.938095 166.211121,200.973969 
	C165.820770,200.857742 165.430435,200.741516 165.040085,200.625305 
	C167.504913,193.547836 169.969757,186.470367 172.699585,179.163986 
M173.523026,182.616913 
	C173.542526,182.230957 173.562042,181.844986 173.581558,181.459030 
	C173.443192,181.730698 173.304840,182.002365 173.523026,182.616913 
M172.539383,184.369812 
	C172.527832,184.721283 172.516281,185.072769 172.504745,185.424240 
	C172.612915,185.179337 172.721069,184.934433 172.539383,184.369812 
z"/>
<path fill="#ECF1F6" opacity="1.000000" stroke="none" 
	d="
M322.039703,92.040825 
	C316.743744,94.625359 311.447784,97.209892 306.151825,99.794426 
	C305.842560,99.064995 305.533295,98.335564 305.224030,97.606133 
	C310.538849,95.705528 315.853699,93.804924 321.584229,91.951248 
	C321.999969,91.998192 322.039703,92.040825 322.039703,92.040825 
z"/>
<path fill="#ECF1F6" opacity="1.000000" stroke="none" 
	d="
M321.981689,91.975525 
	C322.440125,91.829926 322.916870,91.706993 323.393616,91.584061 
	C323.109955,91.729301 322.826324,91.874542 322.291199,92.030304 
	C322.039703,92.040825 321.999969,91.998192 321.981689,91.975525 
z"/>
<path fill="#FEFEFE" opacity="1.000000" stroke="none" 
	d="
M286.198517,469.221832 
	C284.225983,470.621460 282.253448,472.021088 279.931946,473.736938 
	C279.316315,474.155396 279.049622,474.257629 278.782898,474.359863 
	C278.873016,474.470245 279.034180,474.682465 279.042938,474.676361 
	C279.363647,474.452515 279.670166,474.208435 279.978699,473.967163 
	C281.945496,473.779510 284.064880,474.004211 285.855957,473.341583 
	C308.425079,464.991943 331.990692,461.160645 355.668518,457.909424 
	C365.104126,456.613861 374.617401,455.883636 385.006378,454.801086 
	C375.655212,467.895447 363.862213,476.464600 350.972015,483.490417 
	C321.411346,499.602417 290.010986,510.879150 256.850983,516.634949 
	C242.160477,519.184937 227.148544,520.378967 212.242889,517.290955 
	C210.752487,516.982239 209.381866,516.095337 207.955658,515.476746 
	C208.814987,513.953125 209.299667,511.890076 210.593216,510.991791 
	C220.409424,504.175018 229.992142,496.880951 240.403854,491.096924 
	C254.922424,483.031372 270.097626,476.147827 285.475067,468.855530 
	C285.958313,468.952606 286.198517,469.221832 286.198517,469.221832 
z"/>
<path fill="#F8FAFC" opacity="1.000000" stroke="none" 
	d="
M306.906067,515.895020 
	C293.297577,520.173645 280.060822,524.343811 266.824066,528.514038 
	C266.875214,528.790710 266.926361,529.067383 266.977509,529.344116 
	C277.727478,527.262939 288.477417,525.181824 299.227386,523.100647 
	C299.335968,523.432922 299.444580,523.765137 299.553162,524.097351 
	C296.894135,525.018860 294.301849,526.347961 291.565308,526.796326 
	C272.589783,529.905640 253.652420,533.446655 234.560272,535.563599 
	C224.651611,536.662292 214.817978,533.482056 205.668732,529.194275 
	C204.298111,528.551941 203.219925,527.285645 202.006454,526.308044 
	C202.166931,525.882935 202.327393,525.457886 202.487869,525.032776 
	C204.273499,525.333679 206.048843,525.739807 207.846710,525.915771 
	C213.197037,526.439453 218.552094,526.927917 223.912811,527.329834 
	C235.019150,528.162537 245.599747,524.909790 256.382874,523.172241 
	C258.743408,522.791870 261.332428,523.931641 263.727539,523.640808 
	C267.906036,523.133423 272.262146,522.656189 276.093903,521.075562 
	C281.305969,518.925659 285.720123,516.090149 292.157379,516.663330 
	C297.365204,517.126953 302.983551,514.113342 308.276062,512.236755 
	C317.045410,509.127350 325.689453,505.665924 334.409851,502.416016 
	C336.184692,501.754578 338.063751,501.372803 339.894775,500.862122 
	C340.034332,501.261383 340.173889,501.660645 340.313446,502.059906 
	C329.301544,506.635468 318.289642,511.211060 306.906067,515.895020 
z"/>
<path fill="#F4F7FA" opacity="1.000000" stroke="none" 
	d="
M295.704895,451.713928 
	C308.900452,448.774719 321.709137,445.963196 334.517792,443.151672 
	C334.756653,443.730164 334.995544,444.308655 335.234406,444.887146 
	C333.394562,445.746033 331.636169,446.953308 329.701294,447.405914 
	C319.053497,449.896484 308.312622,452.001129 297.701630,454.633209 
	C288.572235,456.897766 279.581573,459.718628 270.509369,462.220184 
	C269.276581,462.560089 267.926300,462.473694 266.630402,462.584686 
	C266.493683,461.965637 266.356995,461.346588 266.220276,460.727539 
	C275.919525,457.765564 285.618744,454.803589 295.704895,451.713928 
z"/>
<path fill="#F1F4F9" opacity="1.000000" stroke="none" 
	d="
M285.938110,461.861450 
	C297.810608,458.806946 309.308807,455.855865 320.807007,452.904755 
	C320.962433,453.535065 321.117828,454.165375 321.273254,454.795685 
	C307.798065,458.229919 294.322906,461.664154 280.847717,465.098419 
	C280.709808,464.733490 280.571869,464.368561 280.433960,464.003632 
	C282.143921,463.324036 283.853882,462.644440 285.938110,461.861450 
z"/>
<path fill="#EAEFF5" opacity="1.000000" stroke="none" 
	d="
M340.654419,449.672729 
	C354.020935,448.082825 366.969025,446.610291 379.917114,445.137726 
	C379.976257,445.699310 380.035370,446.260925 380.094513,446.822510 
	C364.078094,448.591736 348.061676,450.360931 332.045258,452.130157 
	C331.992462,451.812836 331.939697,451.495514 331.886902,451.178192 
	C334.669922,450.715485 337.452972,450.252808 340.654419,449.672729 
z"/>
<path fill="#F1F4F9" opacity="1.000000" stroke="none" 
	d="
M358.287109,440.768494 
	C359.474457,441.131165 360.412079,441.697021 362.729095,443.095245 
	C353.425476,443.836426 345.621490,444.458130 337.817474,445.079834 
	C337.744690,444.247528 337.671906,443.415253 337.599091,442.582947 
	C344.411896,442.045837 351.224670,441.508728 358.287109,440.768494 
z"/>
<path fill="#FEFEFE" opacity="1.000000" stroke="none" 
	d="
M287.765625,467.719849 
	C288.315918,467.572906 288.866241,467.425995 289.416534,467.279053 
	C289.192139,467.564148 288.967743,467.849243 288.356232,468.049377 
	C287.969086,467.964386 287.765625,467.719818 287.765625,467.719849 
z"/>
<path fill="#FEFEFE" opacity="1.000000" stroke="none" 
	d="
M285.837585,468.818542 
	C286.211853,468.399902 286.706818,468.115265 287.483704,467.775208 
	C287.765625,467.719818 287.969086,467.964386 288.074585,468.086670 
	C287.705292,468.504517 287.230530,468.800079 286.477142,469.158722 
	C286.198517,469.221832 285.958313,468.952606 285.837585,468.818542 
z"/>
<path fill="#97B3D1" opacity="1.000000" stroke="none" 
	d="
M178.676117,173.074173 
	C178.215958,174.582611 177.424225,176.191986 176.305695,177.908859 
	C176.767456,176.402618 177.556015,174.788879 178.676117,173.074173 
z"/>
<path fill="#97B3D1" opacity="1.000000" stroke="none" 
	d="
M182.701569,167.133987 
	C182.549744,168.226959 182.090714,169.485306 181.305969,170.882980 
	C181.451630,169.781326 181.922989,168.540344 182.701569,167.133987 
z"/>
<path fill="#97B3D1" opacity="1.000000" stroke="none" 
	d="
M175.684723,178.017151 
	C175.476212,178.705322 174.942780,179.435440 174.026230,180.101166 
	C174.215347,179.377563 174.787598,178.718323 175.684723,178.017151 
z"/>
<path fill="#97B3D1" opacity="1.000000" stroke="none" 
	d="
M180.723907,170.988403 
	C180.851074,171.288849 180.684036,171.602081 180.246368,171.964966 
	C180.127060,171.676819 180.278381,171.339020 180.723907,170.988403 
z"/>
<path fill="#97B3D1" opacity="1.000000" stroke="none" 
	d="
M179.727905,172.004150 
	C179.857620,172.304611 179.702850,172.632309 179.262421,172.985901 
	C179.132324,172.684998 179.287872,172.358200 179.727905,172.004150 
z"/>
<path fill="#97B3D1" opacity="1.000000" stroke="none" 
	d="
M173.344757,182.445465 
	C173.304840,182.002365 173.443192,181.730698 173.581558,181.459030 
	C173.562042,181.844986 173.542526,182.230957 173.344757,182.445465 
z"/>
<path fill="#97B3D1" opacity="1.000000" stroke="none" 
	d="
M172.684296,184.529663 
	C172.721069,184.934433 172.612915,185.179337 172.504730,185.424240 
	C172.516281,185.072769 172.527832,184.721283 172.684296,184.529663 
z"/>
<path fill="#98B3D1" opacity="1.000000" stroke="none" 
	d="
M279.992188,473.985168 
	C279.670166,474.208435 279.363647,474.452515 279.042938,474.676361 
	C279.034180,474.682465 278.873016,474.470245 278.782898,474.359863 
	C279.049622,474.257629 279.316315,474.155396 279.810608,474.043884 
	C280.038177,474.034607 280.005707,474.003174 279.992188,473.985168 
z"/>
</svg>